<svg width="135" height="29" viewBox="0 0 135 29" fill="none" xmlns="http://www.w3.org/2000/svg">
<path d="M14.4873 18.0889C14.4873 18.9873 14.541 19.7148 14.6484 20.2715C14.7559 20.8281 14.917 21.3213 15.1318 21.751V22H10.6934C10.498 21.6191 10.3564 21.1455 10.2686 20.5791C9.2627 21.7217 7.93945 22.293 6.29883 22.293C5.30273 22.293 4.39453 22.0879 3.57422 21.6777C2.75391 21.2676 2.10449 20.7012 1.62598 19.9785C1.15723 19.2559 0.922852 18.4404 0.922852 17.5322C0.922852 15.8623 1.54297 14.5781 2.7832 13.6797C4.02344 12.7715 5.84961 12.3174 8.26172 12.3174H10.0635V11.4238C10.0635 10.6914 9.87793 10.125 9.50684 9.72461C9.13574 9.31445 8.5791 9.10938 7.83691 9.10938C7.16309 9.10938 6.63574 9.27051 6.25488 9.59277C5.88379 9.90527 5.69824 10.3545 5.69824 10.9404H1.27441C1.27441 9.99316 1.55273 9.13379 2.10938 8.3623C2.67578 7.59082 3.47168 6.98047 4.49707 6.53125C5.53223 6.08203 6.72363 5.85742 8.07129 5.85742C9.32129 5.85742 10.4297 6.06738 11.3965 6.4873C12.3633 6.90723 13.1201 7.53711 13.667 8.37695C14.2139 9.2168 14.4873 10.2422 14.4873 11.4531V18.0889ZM7.29492 18.9385C7.93945 18.9385 8.50586 18.8018 8.99414 18.5283C9.48242 18.2451 9.83887 17.9033 10.0635 17.5029V14.8516H8.37891C7.35352 14.8516 6.58691 15.0762 6.0791 15.5254C5.58105 15.9648 5.33203 16.541 5.33203 17.2539C5.33203 17.752 5.50781 18.1572 5.85938 18.4697C6.2207 18.7822 6.69922 18.9385 7.29492 18.9385ZM30.3516 18.4404V22H18.2812H17.1094V19.3486L24.4336 9.70996H17.3584V6.15039H28.6084H30.1318V8.71387L22.7783 18.4404H30.3516ZM41.7041 5.85742C43.2959 5.85742 44.5264 6.33594 45.3955 7.29297C46.2646 8.24023 46.6992 9.79297 46.6992 11.9512V22H42.2754V11.9365C42.2754 10.999 42.0752 10.3496 41.6748 9.98828C41.2744 9.61719 40.6543 9.43164 39.8145 9.43164C39.2383 9.43164 38.7354 9.55371 38.3057 9.79785C37.8857 10.042 37.5439 10.3887 37.2803 10.8379V22H32.8564V6.15039H37.002L37.1484 7.98145C37.7051 7.28809 38.3691 6.76074 39.1406 6.39941C39.9121 6.03809 40.7666 5.85742 41.7041 5.85742ZM62.71 18.0889C62.71 18.9873 62.7637 19.7148 62.8711 20.2715C62.9785 20.8281 63.1396 21.3213 63.3545 21.751V22H58.916C58.7207 21.6191 58.5791 21.1455 58.4912 20.5791C57.4854 21.7217 56.1621 22.293 54.5215 22.293C53.5254 22.293 52.6172 22.0879 51.7969 21.6777C50.9766 21.2676 50.3271 20.7012 49.8486 19.9785C49.3799 19.2559 49.1455 18.4404 49.1455 17.5322C49.1455 15.8623 49.7656 14.5781 51.0059 13.6797C52.2461 12.7715 54.0723 12.3174 56.4844 12.3174H58.2861V11.4238C58.2861 10.6914 58.1006 10.125 57.7295 9.72461C57.3584 9.31445 56.8018 9.10938 56.0596 9.10938C55.3857 9.10938 54.8584 9.27051 54.4775 9.59277C54.1064 9.90527 53.9209 10.3545 53.9209 10.9404H49.4971C49.4971 9.99316 49.7754 9.13379 50.332 8.3623C50.8984 7.59082 51.6943 6.98047 52.7197 6.53125C53.7549 6.08203 54.9463 5.85742 56.2939 5.85742C57.5439 5.85742 58.6523 6.06738 59.6191 6.4873C60.5859 6.90723 61.3428 7.53711 61.8896 8.37695C62.4365 9.2168 62.71 10.2422 62.71 11.4531V18.0889ZM55.5176 18.9385C56.1621 18.9385 56.7285 18.8018 57.2168 18.5283C57.7051 18.2451 58.0615 17.9033 58.2861 17.5029V14.8516H56.6016C55.5762 14.8516 54.8096 15.0762 54.3018 15.5254C53.8037 15.9648 53.5547 16.541 53.5547 17.2539C53.5547 17.752 53.7305 18.1572 54.082 18.4697C54.4434 18.7822 54.9219 18.9385 55.5176 18.9385ZM79.585 6.15039V28.0938H75.1465V20.6523C74.1602 21.7461 72.9053 22.293 71.3818 22.293C70.083 22.293 68.9697 21.9463 68.042 21.2529C67.1143 20.5596 66.4062 19.6025 65.918 18.3818C65.4395 17.1611 65.2002 15.7744 65.2002 14.2217V13.9141C65.2002 12.3027 65.4395 10.8916 65.918 9.68066C66.4062 8.46973 67.1143 7.53223 68.042 6.86816C68.9697 6.19434 70.0928 5.85742 71.4111 5.85742C73.1006 5.85742 74.4385 6.50684 75.4248 7.80566L75.7178 6.15039H79.585ZM72.5098 18.7334C73.7695 18.7334 74.6484 18.2402 75.1465 17.2539V10.8525C74.6582 9.89551 73.7891 9.41699 72.5391 9.41699C71.5332 9.41699 70.7959 9.82227 70.3271 10.6328C69.8584 11.4434 69.624 12.5371 69.624 13.9141V14.2217C69.624 15.5791 69.8535 16.6729 70.3125 17.5029C70.7715 18.3232 71.5039 18.7334 72.5098 18.7334ZM99.9316 14.8516C99.834 16.3164 99.4287 17.6104 98.7158 18.7334C98.0127 19.8564 97.0264 20.7305 95.7568 21.3555C94.4873 21.9805 92.998 22.293 91.2891 22.293C89.4629 22.293 87.8809 21.8779 86.543 21.0479C85.2051 20.208 84.1797 19.0166 83.4668 17.4736C82.7637 15.9209 82.4121 14.0947 82.4121 11.9951V10.6914C82.4121 8.60156 82.7783 6.78027 83.5107 5.22754C84.2432 3.66504 85.2783 2.46387 86.6162 1.62402C87.9541 0.78418 89.5166 0.364258 91.3037 0.364258C93.0518 0.364258 94.5508 0.686523 95.8008 1.33105C97.0508 1.97559 98.0176 2.86914 98.7012 4.01172C99.3945 5.14453 99.8096 6.45801 99.9463 7.95215H95.3613C95.2734 6.66309 94.917 5.70605 94.292 5.08105C93.6768 4.44629 92.6807 4.12891 91.3037 4.12891C89.8682 4.12891 88.8037 4.65625 88.1104 5.71094C87.417 6.76562 87.0703 8.41602 87.0703 10.6621V11.9951C87.0703 13.5088 87.2119 14.7441 87.4951 15.7012C87.7783 16.6484 88.2275 17.3564 88.8428 17.8252C89.458 18.2939 90.2734 18.5283 91.2891 18.5283C92.6074 18.5283 93.5889 18.2305 94.2334 17.6348C94.8877 17.0293 95.2588 16.1016 95.3467 14.8516H99.9316ZM110.259 5.85742C110.483 5.85742 110.723 5.87695 110.977 5.91602C111.23 5.94531 111.436 5.98438 111.592 6.0332L111.533 10.3105C110.967 10.2324 110.444 10.1934 109.966 10.1934C108.384 10.1934 107.354 10.7158 106.875 11.7607V22H102.451V6.15039H106.611L106.743 8.06934C107.134 7.35645 107.627 6.80957 108.223 6.42871C108.828 6.04785 109.507 5.85742 110.259 5.85742ZM127.471 15.5107H117.451C117.617 16.4971 118.027 17.2832 118.682 17.8691C119.336 18.4453 120.176 18.7334 121.201 18.7334C121.963 18.7334 122.666 18.5918 123.311 18.3086C123.965 18.0156 124.521 17.5811 124.98 17.0049L127.104 19.4512C126.548 20.252 125.732 20.9258 124.658 21.4727C123.594 22.0195 122.344 22.293 120.908 22.293C119.287 22.293 117.876 21.9512 116.675 21.2676C115.483 20.584 114.565 19.6562 113.921 18.4844C113.286 17.3125 112.969 16.0186 112.969 14.6025V14.0459C112.969 12.4639 113.267 11.0527 113.862 9.8125C114.458 8.57227 115.317 7.60547 116.44 6.91211C117.563 6.20898 118.892 5.85742 120.425 5.85742C121.919 5.85742 123.193 6.1748 124.248 6.80957C125.303 7.44434 126.104 8.34766 126.65 9.51953C127.197 10.6816 127.471 12.0537 127.471 13.6357V15.5107ZM123.135 12.2002C123.115 11.3408 122.876 10.6621 122.417 10.1641C121.968 9.66602 121.294 9.41699 120.396 9.41699C119.556 9.41699 118.896 9.69531 118.418 10.252C117.949 10.8086 117.642 11.5752 117.495 12.5518H123.135V12.2002ZM132.495 17.4736C132.983 17.4736 133.418 17.5762 133.799 17.7812C134.18 17.9863 134.473 18.2695 134.678 18.6309C134.883 18.9824 134.985 19.3779 134.985 19.8174C134.985 20.2568 134.883 20.6572 134.678 21.0186C134.473 21.3701 134.18 21.6484 133.799 21.8535C133.418 22.0586 132.983 22.1611 132.495 22.1611C132.007 22.1611 131.572 22.0586 131.191 21.8535C130.82 21.6484 130.532 21.3701 130.327 21.0186C130.122 20.6572 130.02 20.2568 130.02 19.8174C130.02 19.3779 130.122 18.9824 130.327 18.6309C130.532 18.2695 130.82 17.9863 131.191 17.7812C131.572 17.5762 132.007 17.4736 132.495 17.4736Z" fill="black"/>
</svg>
